<?xml version="1.0" encoding="UTF-8"?>
<!DOCTYPE svg PUBLIC "-//W3C//DTD SVG 1.1//EN" "http://www.w3.org/Graphics/SVG/1.1/DTD/svg11.dtd">
<svg xmlns="http://www.w3.org/2000/svg" xml:space="preserve" width="100%" height="100%" version="1.1" style="shape-rendering:geometricPrecision; text-rendering:geometricPrecision; image-rendering:optimizeQuality; fill-rule:evenodd; clip-rule:evenodd" viewBox="0 0 4912 1388" xmlns:xlink="http://www.w3.org/1999/xlink">
 <defs>
  <style type="text/css">
   <![CDATA[
    .fil0 {fill:#FF1901}
    .fil1 {fill:black;fill-rule:nonzero}
   ]]>
  </style>
 </defs>
 <g id="Layer_x0020_1">
  <metadata id="CorelCorpID_0Corel-Layer"/>
  <path class="fil0" d="M1134 157c155,128 254,321 254,537 0,383 -311,694 -694,694 -383,0 -694,-311 -694,-694 0,-216 99,-409 254,-537 22,-18 31,-9 19,6 -72,87 -126,206 -126,349 0,302 244,547 546,548 25,-46 34,-95 34,-135 0,-239 -264,-229 -264,-549 0,-223 158,-336 216,-369 21,-11 25,-10 14,10 -21,38 -32,91 -32,131 0,241 264,228 264,548 -1,106 -47,267 -205,363 290,-14 521,-253 521,-547 0,-143 -54,-262 -126,-349 -12,-15 -2,-23 19,-6z"/>
  <path class="fil1" d="M1925 433c0,-20 -5,-36 -15,-49 -10,-12 -22,-22 -36,-30 -15,-8 -31,-15 -48,-20 -16,-5 -32,-10 -47,-16 -14,-6 -27,-13 -36,-21 -10,-8 -15,-19 -15,-33 0,-17 8,-31 22,-44 15,-12 35,-18 62,-18 12,0 26,1 40,3 14,1 27,4 39,6 8,2 12,-2 12,-9l0 -17c0,-5 -1,-8 -2,-11 -1,-2 -4,-4 -9,-5 -11,-3 -24,-5 -38,-7 -14,-2 -28,-3 -43,-3 -19,0 -36,3 -52,8 -16,5 -30,12 -41,22 -12,9 -21,20 -28,33 -6,14 -9,28 -9,45 0,21 5,38 14,50 10,13 22,23 37,31 14,8 30,14 47,19 17,5 32,10 47,16 15,5 27,12 37,20 9,8 14,19 14,33 0,19 -7,34 -22,46 -14,12 -37,17 -67,17 -15,0 -31,-1 -48,-4 -17,-3 -32,-7 -46,-11 -9,-3 -14,-1 -14,8l0 18c0,5 1,8 3,11 1,3 4,5 8,6 12,4 27,8 44,11 17,3 35,4 53,4 45,0 79,-10 102,-30 23,-20 35,-46 35,-79z"/>
  <path id="1" class="fil1" d="M1987 190c0,9 4,17 10,23 7,7 15,11 24,11 9,0 17,-4 24,-11 7,-6 10,-14 10,-23 0,-9 -3,-17 -10,-24 -7,-7 -15,-10 -24,-10 -9,0 -17,3 -24,10 -6,7 -10,15 -10,24zm13 299c0,18 3,31 11,40 8,9 20,13 37,13 4,0 9,0 14,-1 5,-1 9,-2 12,-4 3,-2 5,-5 5,-10l0 -21c0,-4 -2,-6 -7,-5 -4,1 -9,2 -13,2 -5,0 -9,-1 -12,-4 -3,-2 -4,-6 -4,-13l0 -216c0,-5 -1,-8 -3,-10 -2,-2 -5,-2 -10,-2l-18 0c-5,0 -8,0 -10,2 -1,2 -2,5 -2,10l0 219z"/>
  <path id="2" class="fil1" d="M2139 338c0,17 4,30 11,40 8,9 17,17 28,23 12,5 24,9 37,12 14,3 26,6 37,10 12,3 21,8 29,14 7,5 11,13 11,24 0,8 -2,14 -6,20 -3,5 -9,9 -15,13 -6,3 -14,6 -22,7 -9,2 -18,3 -27,3 -10,0 -22,-1 -34,-3 -12,-2 -24,-4 -36,-7 -5,-1 -8,-1 -10,1 -1,2 -2,4 -2,8l0 17c0,6 3,11 10,13 23,6 48,9 75,9 17,0 33,-2 48,-6 14,-3 27,-10 36,-18 8,-7 14,-15 19,-25 4,-10 6,-21 6,-34 0,-16 -3,-30 -11,-40 -7,-10 -17,-17 -28,-23 -12,-6 -24,-11 -37,-14 -14,-3 -26,-6 -37,-10 -12,-4 -21,-8 -29,-13 -7,-6 -11,-13 -11,-23 0,-14 6,-24 18,-32 11,-7 26,-10 44,-10 11,0 21,0 31,2 11,1 22,3 33,6 6,1 9,-2 9,-7l0 -19c0,-4 0,-6 -1,-8 -2,-1 -4,-2 -7,-3 -9,-3 -20,-6 -31,-7 -12,-2 -24,-3 -36,-3 -15,0 -28,2 -41,6 -13,3 -23,8 -32,15 -9,7 -17,16 -22,26 -5,11 -7,23 -7,36z"/>
  <path id="3" class="fil1" d="M2458 295l85 0c7,0 10,-3 10,-10l0 -17c0,-7 -3,-10 -10,-10l-85 0 0 -54c0,-5 -1,-8 -2,-10 -2,-1 -5,-2 -10,-2l-18 0c-5,0 -9,1 -10,2 -2,2 -3,5 -3,10l0 54 -30 0c-7,0 -10,3 -10,10l0 17c0,7 3,10 10,10l30 0 0 134c0,21 2,38 6,50 5,12 12,23 21,34 9,10 21,17 34,22 14,5 29,7 45,7 7,0 15,0 23,-1 8,0 16,-2 22,-4 6,-1 9,-5 9,-11l0 -19c0,-6 -4,-9 -10,-8 -5,1 -11,1 -19,2 -7,1 -13,1 -18,1 -23,0 -40,-5 -52,-17 -7,-6 -11,-15 -14,-25 -3,-9 -4,-24 -4,-43l0 -122z"/>
  <path id="4" class="fil1" d="M2743 255c-5,0 -10,1 -14,1 -4,1 -8,2 -12,3 -4,2 -8,4 -12,6 -4,3 -8,6 -13,11l-51 41c-8,6 -13,12 -15,17 -3,6 -4,14 -4,26l0 56c0,21 3,39 9,53 6,14 15,26 26,37 12,12 28,21 46,27 18,6 37,9 59,9 7,0 14,0 21,0 8,-1 15,-2 23,-3 7,-1 14,-3 21,-4 7,-2 13,-4 18,-6 4,-2 6,-5 6,-10l0 -21c0,-7 -3,-9 -9,-8 -12,4 -26,7 -40,9 -14,2 -27,3 -40,3 -15,0 -29,-2 -42,-7 -12,-4 -23,-11 -31,-19 -9,-9 -16,-20 -19,-31 -4,-12 -5,-26 -5,-43l0 -39c0,-5 0,-8 1,-10 1,-2 3,-5 6,-7l50 -42c4,-3 8,-5 11,-6 3,-1 7,-2 13,-2 14,0 26,2 37,6 11,4 21,9 28,17 8,7 15,16 19,26 4,11 6,22 6,35l0 2 -120 0c-6,0 -10,3 -10,10l0 18c0,7 4,10 10,10l140 0c9,0 15,-1 19,-5 3,-4 4,-10 4,-18l0 -15c0,-22 -3,-39 -9,-53 -6,-14 -15,-27 -26,-38 -13,-12 -28,-21 -45,-27 -17,-6 -34,-9 -51,-9l-5 0z"/>
  <path id="5" class="fil1" d="M3359 528c0,5 1,8 3,10 2,1 5,2 10,2l18 0c5,0 8,-1 10,-2 1,-2 2,-5 2,-10l0 -146c0,-22 -3,-39 -9,-53 -6,-14 -14,-27 -25,-38 -13,-12 -28,-21 -45,-27 -17,-6 -34,-9 -51,-9 -5,0 -10,1 -14,1 -4,1 -7,2 -11,3 -4,2 -7,4 -11,6 -4,3 -9,6 -14,11l-44 36c-4,-7 -10,-14 -17,-21 -12,-12 -27,-21 -44,-27 -17,-6 -34,-9 -51,-9 -5,0 -10,1 -14,1 -4,1 -8,2 -12,3 -3,2 -7,4 -11,6 -4,3 -9,6 -13,11l-51 41c-8,6 -13,12 -16,17 -2,6 -4,14 -4,26l0 168c0,5 1,8 3,10 2,1 5,2 10,2l18 0c5,0 8,-1 10,-2 2,-2 2,-5 2,-10l0 -165c0,-4 1,-8 2,-10 1,-2 3,-4 6,-7l50 -41c4,-3 8,-5 10,-6 3,-1 6,-2 10,-2 11,0 22,2 34,7 11,4 21,10 29,19 9,9 15,19 19,30 3,11 5,26 5,44l0 131c0,5 1,8 2,10 2,1 5,2 10,2l18 0c5,0 9,-1 10,-2 2,-2 3,-5 3,-10l0 -146c0,-5 0,-10 -1,-15 0,-5 -1,-10 -1,-15l58 -47c4,-3 7,-5 10,-6 3,-1 7,-2 11,-2 11,0 22,2 33,7 11,4 21,10 30,19 9,9 15,19 18,30 4,11 5,26 5,44l0 131z"/>
  <path id="6" class="fil1" d="M3601 542c10,0 18,0 26,-2 8,-1 15,-3 21,-6 4,-2 6,-5 6,-10l0 -25c0,-4 -2,-6 -6,-4 -6,2 -12,4 -20,6 -8,1 -15,2 -23,2 -29,0 -51,-9 -68,-26 -9,-9 -16,-19 -19,-31 -4,-12 -6,-27 -6,-44l0 -39c0,-5 1,-8 2,-10 1,-2 3,-5 6,-7l50 -42c4,-3 8,-5 10,-6 3,-1 7,-2 13,-2l5 0c12,0 24,2 36,6 12,4 22,11 31,19 9,9 15,20 18,31 4,12 6,26 6,43l0 133c0,5 1,8 2,10 2,1 5,2 10,2l18 0c5,0 9,-1 10,-2 2,-2 3,-5 3,-10l0 -146c0,-22 -3,-39 -10,-53 -6,-14 -14,-27 -25,-38 -13,-12 -28,-21 -45,-27 -18,-6 -35,-9 -52,-9l-10 0c-5,0 -9,1 -14,1 -4,1 -8,2 -12,3 -3,2 -7,4 -11,6 -4,3 -8,6 -13,11l-51 41c-8,6 -13,12 -16,17 -2,6 -3,14 -3,26l0 54c0,22 3,40 9,55 6,14 15,27 26,38 13,12 28,21 44,27 16,6 34,8 52,8z"/>
  <path id="7" class="fil1" d="M4055 542c10,0 18,0 26,-2 8,-1 15,-3 21,-6 4,-2 6,-5 6,-10l0 -25c0,-4 -2,-6 -6,-4 -6,2 -12,4 -20,6 -8,1 -16,2 -23,2 -29,0 -51,-9 -68,-26 -9,-9 -16,-19 -19,-31 -4,-12 -6,-27 -6,-44l0 -39c0,-5 1,-8 2,-10 1,-2 3,-5 6,-7l50 -42c4,-3 8,-5 10,-6 3,-1 7,-2 13,-2l5 0c12,0 24,2 36,6 12,4 22,11 30,19 10,9 16,20 19,31 4,12 6,26 6,43l0 133c0,5 1,8 2,10 2,1 5,2 10,2l18 0c5,0 9,-1 10,-2 2,-2 3,-5 3,-10l0 -377c0,-5 -1,-8 -3,-10 -1,-1 -5,-2 -10,-2l-18 0c-5,0 -8,1 -10,2 -1,2 -2,5 -2,10l0 141c-5,-6 -11,-11 -18,-16 -7,-5 -14,-9 -21,-12 -16,-6 -34,-9 -55,-9l-5 0c-5,0 -10,1 -14,1 -4,1 -8,2 -12,3 -3,2 -7,4 -11,6 -4,3 -9,6 -13,11l-51 41c-8,6 -13,12 -16,17 -2,6 -4,14 -4,26l0 54c0,22 4,40 10,55 6,14 15,27 26,38 13,12 27,21 44,27 16,6 34,8 52,8z"/>
  <path id="8" class="fil1" d="M4379 255c-6,0 -10,1 -15,1 -4,1 -8,2 -11,3 -4,2 -8,4 -12,6 -4,3 -9,6 -14,11l-50 41c-8,6 -13,12 -16,17 -3,6 -4,14 -4,26l0 56c0,21 3,39 9,53 7,14 15,26 26,37 13,12 28,21 46,27 18,6 38,9 59,9 7,0 14,0 22,0 7,-1 15,-2 22,-3 7,-1 14,-3 21,-4 7,-2 13,-4 18,-6 4,-2 7,-5 7,-10l0 -21c0,-7 -4,-9 -10,-8 -12,4 -25,7 -39,9 -14,2 -28,3 -41,3 -15,0 -29,-2 -41,-7 -13,-4 -23,-11 -32,-19 -9,-9 -15,-20 -19,-31 -3,-12 -5,-26 -5,-43l0 -39c0,-5 0,-8 1,-10 1,-2 3,-5 6,-7l51 -42c4,-3 7,-5 10,-6 3,-1 8,-2 14,-2 13,0 25,2 36,6 12,4 21,9 29,17 8,7 14,16 18,26 5,11 7,22 7,35l0 2 -121 0c-6,0 -9,3 -9,10l0 18c0,7 3,10 9,10l141 0c9,0 15,-1 18,-5 3,-4 5,-10 5,-18l0 -15c0,-22 -3,-39 -10,-53 -6,-14 -14,-27 -25,-38 -13,-12 -28,-21 -45,-27 -18,-6 -35,-9 -52,-9l-4 0z"/>
  <path id="9" class="fil1" d="M1938 1235c2,5 3,8 5,9 3,2 7,3 13,3l21 0c5,0 9,-1 11,-4 1,-2 1,-6 -1,-10l-137 -349c-3,-6 -5,-11 -8,-13 -2,-2 -6,-3 -12,-3l-21 0c-6,0 -10,1 -13,3 -3,3 -6,7 -8,14l-122 348c-2,4 -2,8 0,10 1,3 4,4 10,4l20 0c6,0 10,-1 12,-3 2,-1 4,-4 6,-9l105 -309 74 192 -88 0c-6,0 -9,1 -12,2 -2,2 -4,5 -6,10l-4 14c-4,10 -1,15 7,15l119 0 29 76z"/>
  <path id="10" class="fil1" d="M2275 1048c6,-2 7,-6 5,-12 -5,-11 -11,-20 -19,-29 -7,-10 -16,-17 -26,-24 -10,-7 -21,-12 -33,-15 -12,-4 -25,-6 -38,-6 -12,0 -22,1 -29,4 -8,3 -16,9 -26,16l-50 42c-8,6 -13,12 -16,17 -2,5 -4,14 -4,26l0 55c0,22 3,40 10,54 6,14 14,26 25,37 13,12 28,21 46,27 18,6 38,9 59,9 14,0 28,-1 42,-4 15,-2 27,-5 38,-10 4,-1 6,-5 6,-10l0 -21c0,-6 -3,-8 -9,-7 -26,8 -51,11 -77,11 -15,0 -28,-2 -41,-6 -12,-4 -23,-10 -31,-19 -10,-9 -16,-19 -19,-31 -4,-12 -6,-26 -6,-43l0 -40c0,-4 1,-8 2,-10 1,-2 3,-4 6,-7l50 -41c4,-3 8,-6 11,-7 3,-1 8,-1 14,-1 15,0 29,4 43,12 13,9 24,20 32,33 2,3 4,5 6,6 2,0 5,0 8,-1l21 -5z"/>
  <path id="11" class="fil1" d="M2386 1087c0,-19 1,-33 4,-43 2,-10 7,-18 14,-25 11,-11 28,-17 51,-17 5,0 11,0 19,1 8,0 14,0 19,1 6,0 9,-3 9,-9l0 -17c0,-4 0,-7 -2,-8 -1,-2 -3,-3 -6,-4 -7,-1 -14,-2 -22,-3 -8,-1 -16,-1 -23,-1 -17,0 -32,2 -45,7 -14,5 -25,12 -34,22 -10,11 -17,22 -21,34 -4,13 -6,29 -6,51l0 158c0,5 1,9 2,10 2,2 5,3 10,3l18 0c5,0 9,-1 10,-3 2,-1 3,-5 3,-10l0 -147z"/>
  <path id="12" class="fil1" d="M2650 962c-5,0 -10,0 -14,1 -4,0 -8,1 -12,3 -3,1 -7,3 -12,6 -4,3 -8,6 -13,10l-50 42c-8,6 -14,12 -16,17 -3,5 -4,14 -4,26l0 55c0,22 3,40 9,54 6,14 15,26 26,37 13,12 28,21 46,27 18,6 38,9 59,9 7,0 14,0 22,-1 7,0 14,-1 22,-2 7,-1 14,-3 21,-5 7,-1 13,-3 18,-6 4,-1 6,-5 6,-10l0 -21c0,-6 -3,-8 -9,-7 -12,4 -25,7 -39,9 -14,1 -28,2 -41,2 -15,0 -29,-2 -41,-6 -13,-4 -23,-11 -32,-20 -9,-9 -15,-19 -19,-31 -3,-11 -5,-26 -5,-43l0 -39c0,-4 0,-8 1,-10 1,-2 3,-4 6,-7l50 -41c5,-3 8,-5 11,-6 3,-2 8,-2 14,-2 13,0 25,2 36,6 11,3 21,9 29,16 8,8 14,17 18,27 4,10 7,22 7,34l0 3 -121 0c-6,0 -9,3 -9,10l0 18c0,7 3,10 9,10l140 0c9,0 16,-2 19,-5 3,-4 5,-10 5,-19l0 -14c0,-22 -3,-40 -10,-54 -6,-14 -15,-26 -25,-37 -13,-12 -28,-21 -46,-27 -17,-6 -34,-9 -51,-9l-5 0z"/>
  <path id="13" class="fil1" d="M2977 1249c9,0 18,-1 26,-2 7,-2 14,-4 20,-6 5,-2 7,-6 7,-11l0 -24c0,-4 -3,-6 -7,-4 -5,2 -12,4 -20,5 -7,2 -15,2 -23,2 -28,0 -51,-8 -68,-25 -9,-9 -15,-20 -19,-32 -3,-12 -5,-26 -5,-43l0 -40c0,-4 0,-8 1,-10 1,-2 3,-4 6,-7l50 -41c5,-3 8,-5 11,-6 2,-2 6,-2 12,-2l5 0c12,0 24,2 36,6 12,4 22,10 31,19 9,9 15,19 19,31 3,12 5,26 5,43l0 132c0,5 1,9 3,10 1,2 5,3 10,3l18 0c5,0 8,-1 10,-3 1,-1 2,-5 2,-10l0 -376c0,-5 -1,-8 -2,-10 -2,-2 -5,-3 -10,-3l-18 0c-5,0 -9,1 -10,3 -2,2 -3,5 -3,10l0 141c-5,-6 -11,-12 -17,-16 -7,-5 -14,-9 -22,-12 -15,-6 -34,-9 -55,-9l-4 0c-5,0 -10,0 -14,1 -4,0 -8,1 -12,3 -4,1 -8,3 -12,6 -4,3 -8,6 -13,10l-50 42c-8,6 -14,12 -16,17 -3,5 -4,14 -4,26l0 54c0,22 3,40 9,54 6,15 15,28 26,38 13,13 28,22 44,28 17,5 34,8 53,8z"/>
  <path id="14" class="fil1" d="M3180 896c0,9 3,17 10,24 7,7 15,10 24,10 9,0 17,-3 24,-10 7,-7 10,-15 10,-24 0,-9 -3,-17 -10,-23 -7,-7 -15,-11 -24,-11 -9,0 -17,4 -24,11 -7,6 -10,14 -10,23zm13 300c0,18 3,31 11,39 8,10 20,14 37,14 4,0 9,0 14,-1 5,-1 9,-3 12,-4 3,-2 5,-5 5,-10l0 -22c0,-4 -3,-5 -7,-4 -5,1 -9,1 -13,1 -5,0 -9,-1 -12,-3 -3,-2 -5,-6 -5,-13l0 -216c0,-5 0,-9 -2,-10 -2,-2 -5,-3 -10,-3l-18 0c-5,0 -8,1 -10,3 -2,1 -2,5 -2,10l0 219z"/>
  <path id="15" class="fil1" d="M3391 1002l85 0c7,0 10,-4 10,-11l0 -16c0,-7 -3,-11 -10,-11l-85 0 0 -53c0,-5 -1,-8 -3,-10 -1,-2 -5,-2 -10,-2l-18 0c-4,0 -8,0 -9,2 -2,2 -3,5 -3,10l0 53 -31 0c-6,0 -10,4 -10,11l0 16c0,7 4,11 10,11l31 0 0 133c0,22 2,38 6,50 4,13 11,24 21,35 9,9 20,17 34,22 14,5 28,7 45,7 7,0 15,0 23,-1 8,-1 16,-2 22,-4 6,-2 8,-5 8,-11l0 -19c0,-7 -3,-10 -9,-8 -5,0 -12,1 -19,2 -7,1 -13,1 -19,1 -23,0 -40,-6 -51,-17 -7,-7 -11,-15 -14,-25 -3,-10 -4,-24 -4,-43l0 -122z"/>
  <path id="16" class="fil1" d="M3686 1249c9,0 18,-1 26,-2 8,-2 15,-4 21,-6 4,-2 6,-6 6,-11l0 -24c0,-4 -2,-6 -7,-4 -5,2 -11,4 -19,5 -8,2 -16,2 -24,2 -28,0 -50,-8 -67,-25 -9,-9 -16,-20 -19,-32 -4,-12 -6,-26 -6,-43l0 -40c0,-4 1,-8 2,-10 1,-2 3,-4 6,-7l50 -41c4,-3 7,-5 10,-6 3,-2 7,-2 13,-2l5 0c12,0 24,2 36,6 11,4 22,10 30,19 9,9 16,19 19,31 4,12 6,26 6,43l0 132c0,5 1,9 2,10 2,2 5,3 10,3l18 0c5,0 8,-1 10,-3 2,-1 3,-5 3,-10l0 -145c0,-22 -3,-40 -10,-54 -6,-14 -15,-26 -25,-37 -13,-12 -28,-21 -46,-27 -17,-6 -34,-9 -51,-9l-10 0c-5,0 -10,0 -14,1 -4,0 -8,1 -12,3 -3,1 -7,3 -11,6 -4,3 -9,6 -14,10l-50 42c-8,6 -13,12 -16,17 -2,5 -4,14 -4,26l0 54c0,22 3,40 10,54 6,15 14,28 25,38 14,13 28,22 45,28 16,5 34,8 52,8z"/>
  <path id="17" class="fil1" d="M4120 1048c5,-2 7,-6 4,-12 -4,-11 -10,-20 -18,-29 -7,-10 -16,-17 -26,-24 -10,-7 -21,-12 -33,-15 -12,-4 -25,-6 -39,-6 -12,0 -22,1 -29,4 -7,3 -16,9 -25,16l-50 42c-8,6 -14,12 -16,17 -3,5 -4,14 -4,26l0 55c0,22 3,40 9,54 6,14 15,26 26,37 13,12 28,21 46,27 18,6 38,9 59,9 13,0 27,-1 42,-4 14,-2 27,-5 37,-10 4,-1 6,-5 6,-10l0 -21c0,-6 -3,-8 -9,-7 -25,8 -51,11 -76,11 -15,0 -29,-2 -41,-6 -13,-4 -23,-10 -32,-19 -9,-9 -15,-19 -19,-31 -3,-12 -5,-26 -5,-43l0 -40c0,-4 0,-8 1,-10 1,-2 3,-4 6,-7l51 -41c4,-3 7,-6 11,-7 3,-1 7,-1 13,-1 15,0 30,4 43,12 14,9 25,20 33,33 1,3 3,5 6,6 2,0 4,0 8,-1l21 -5z"/>
  <path id="18" class="fil1" d="M4182 896c0,9 3,17 10,24 7,7 15,10 24,10 9,0 17,-3 23,-10 7,-7 11,-15 11,-24 0,-9 -4,-17 -11,-23 -6,-7 -14,-11 -23,-11 -9,0 -17,4 -24,11 -7,6 -10,14 -10,23zm12 300c0,18 4,31 12,39 7,10 20,14 36,14 5,0 10,0 14,-1 5,-1 9,-3 12,-4 4,-2 5,-5 5,-10l0 -22c0,-4 -2,-5 -6,-4 -5,1 -9,1 -13,1 -6,0 -10,-1 -13,-3 -2,-2 -4,-6 -4,-13l0 -216c0,-5 -1,-9 -2,-10 -2,-2 -5,-3 -10,-3l-18 0c-5,0 -9,1 -10,3 -2,1 -3,5 -3,10l0 219z"/>
  <path id="19" class="fil1" d="M4329 1122c0,22 3,40 9,54 6,14 15,26 26,37 13,12 28,21 45,27 17,6 35,9 52,9l9 0c5,0 10,0 14,-1 4,0 8,-1 12,-3 4,-1 8,-3 11,-6 4,-3 9,-6 14,-10l50 -42c8,-6 13,-12 16,-17 3,-5 4,-14 4,-26l0 -55c0,-22 -3,-40 -9,-54 -6,-14 -15,-26 -26,-37 -13,-12 -28,-21 -45,-27 -18,-6 -35,-9 -52,-9l-9 0c-6,0 -10,0 -14,1 -5,0 -8,1 -12,3 -4,1 -8,3 -12,6 -4,3 -8,6 -13,10l-50 42c-8,6 -14,12 -16,17 -3,5 -4,14 -4,26l0 55zm161 78c-4,3 -7,5 -10,6 -2,2 -6,2 -12,2l-5 0c-12,0 -24,-2 -36,-6 -12,-4 -22,-10 -31,-19 -9,-9 -15,-19 -19,-31 -3,-12 -5,-26 -5,-43l0 -40c0,-4 0,-8 1,-10 1,-2 3,-4 6,-7l50 -41c5,-3 8,-5 11,-6 2,-2 6,-2 12,-2l5 0c12,0 24,2 36,6 12,4 22,10 31,19 9,9 15,19 19,31 3,12 5,26 5,43l0 40c0,4 0,7 -1,10 -1,2 -3,4 -6,7l-51 41zm6 -355c7,-3 12,-2 15,4l12 21c4,7 3,11 -3,14l-105 54c-6,3 -10,2 -14,-4l-6 -12c-2,-3 -2,-5 -1,-7 0,-2 2,-4 5,-6l97 -64z"/>
  <path id="20" class="fil1" d="M4869 1234c0,5 1,9 3,10 1,2 5,3 10,3l18 0c5,0 8,-1 10,-3 1,-1 2,-5 2,-10l0 -145c0,-22 -3,-40 -9,-54 -6,-14 -15,-26 -26,-37 -13,-12 -28,-21 -45,-27 -17,-6 -35,-9 -52,-9l0 0c-5,0 -10,0 -14,1 -4,0 -8,1 -12,3 -4,1 -8,3 -12,6 -4,3 -8,6 -13,10l-50 42c-8,6 -13,12 -16,17 -3,5 -4,14 -4,26l0 167c0,5 1,9 2,10 2,2 5,3 10,3l18 0c5,0 9,-1 10,-3 2,-1 3,-5 3,-10l0 -164c0,-5 0,-8 1,-10 1,-2 3,-4 6,-7l51 -41c4,-3 7,-5 10,-7 2,-1 6,-1 10,-1 11,0 23,2 35,6 12,5 22,11 30,19 9,9 15,20 19,31 3,12 5,26 5,43l0 131z"/>
 </g>
</svg>
